<svg id="visual" viewBox="0 0 900 450" width="900" height="450" xmlns="http://www.w3.org/2000/svg" xmlns:xlink="http://www.w3.org/1999/xlink" version="1.1"><rect x="0" y="0" width="900" height="450" fill="#00664e"></rect><defs><linearGradient id="grad1_0" x1="50%" y1="0%" x2="100%" y2="100%"><stop offset="10%" stop-color="#00664e" stop-opacity="1"></stop><stop offset="90%" stop-color="#00664e" stop-opacity="1"></stop></linearGradient></defs><defs><linearGradient id="grad2_0" x1="0%" y1="0%" x2="50%" y2="100%"><stop offset="10%" stop-color="#00664e" stop-opacity="1"></stop><stop offset="90%" stop-color="#00664e" stop-opacity="1"></stop></linearGradient></defs><g transform="translate(900, 0)"><path d="M0 135C-21.3 127.7 -42.6 120.3 -63.5 110C-84.4 99.7 -105.1 86.3 -116.9 67.5C-128.8 48.7 -131.9 24.3 -135 0L0 0Z" fill="#FBAE3C"></path></g><g transform="translate(0, 450)"><path d="M0 -135C23.8 -131.6 47.5 -128.1 67.5 -116.9C87.5 -105.7 103.7 -86.8 114.3 -66C124.9 -45.2 130 -22.6 135 0L0 0Z" fill="#FBAE3C"></path></g></svg>